{
  "accessors": [
    {
      "bufferView": 2,
      "componentType": 5126,
      "count": 70,
      "max": [
        66.21820068359375,
        81.92120361328125,
        115.82990264892578
      ],
      "min": [
        -66.21820068359375,
        16.752700805664063,
        67.42680358886719
      ],
      "type": "VEC3"
    },
    {
      "bufferView": 2,
      "byteOffset": 840,
      "componentType": 5126,
      "count": 70,
      "max": [
        0.357695996761322,
        0.6753966212272644,
        0.8799472451210022
      ],
      "min": [
        -0.357695996761322,
        -0.675498366355896,
        -0.879988968372345
      ],
      "type": "VEC3"
    },
    {
      "bufferView": 1,
      "componentType": 5126,
      "count": 70,
      "max": [
        0.8860999941825867,
        0.9947999715805054
      ],
      "min": [
        0.6212999820709229,
        0.8507000207901001
      ],
      "type": "VEC2"
    },
    {
      "bufferView": 0,
      "componentType": 5125,
      "count": 288,
      "type": "SCALAR"
    },
    {
      "bufferView": 2,
      "byteOffset": 1680,
      "componentType": 5126,
      "count": 4265,
      "max": [
        93.96269989013672,
        194.14939880371094,
        116.27670288085938
      ],
      "min": [
        -93.96269989013672,
        -197.2928924560547,
        6.8628997802734375
      ],
      "type": "VEC3"
    },
    {
      "bufferView": 2,
      "byteOffset": 52860,
      "componentType": 5126,
      "count": 4265,
      "max": [
        1.0,
        1.0,
        1.0
      ],
      "min": [
        -1.0,
        -1.0,
        -1.0
      ],
      "type": "VEC3"
    },
    {
      "bufferView": 3,
      "componentType": 5126,
      "count": 4265,
      "max": [
        1.0,
        0.9999966025352478,
        1.0,
        1.0
      ],
      "min": [
        -1.0,
        -1.0,
        -1.0,
        -1.0
      ],
      "type": "VEC4"
    },
    {
      "bufferView": 1,
      "byteOffset": 560,
      "componentType": 5126,
      "count": 4265,
      "max": [
        0.994700014591217,
        0.9944999814033508
      ],
      "min": [
        0.01209999993443489,
        0.0052999998442828655
      ],
      "type": "VEC2"
    },
    {
      "bufferView": 0,
      "byteOffset": 1152,
      "componentType": 5125,
      "count": 10506,
      "type": "SCALAR"
    },
    {
      "bufferView": 2,
      "byteOffset": 104040,
      "componentType": 5126,
      "count": 6795,
      "max": [
        93.96269989013672,
        194.14939880371094,
        116.27670288085938
      ],
      "min": [
        -93.96269989013672,
        -201.35150146484375,
        -0.0019000000320374966
      ],
      "type": "VEC3"
    },
    {
      "bufferView": 2,
      "byteOffset": 185580,
      "componentType": 5126,
      "count": 6795,
      "max": [
        1.0,
        1.0,
        1.0
      ],
      "min": [
        -1.0,
        -1.0,
        -1.0
      ],
      "type": "VEC3"
    },
    {
      "bufferView": 3,
      "byteOffset": 68240,
      "componentType": 5126,
      "count": 6795,
      "max": [
        1.0,
        1.0,
        1.0,
        1.0
      ],
      "min": [
        -1.0,
        -1.0,
        -1.0,
        -1.0
      ],
      "type": "VEC4"
    },
    {
      "bufferView": 1,
      "byteOffset": 34680,
      "componentType": 5126,
      "count": 6795,
      "max": [
        0.994700014591217,
        0.9933000206947327
      ],
      "min": [
        0.0032999999821186066,
        0.004000000189989805
      ],
      "type": "VEC2"
    },
    {
      "bufferView": 0,
      "byteOffset": 43176,
      "componentType": 5125,
      "count": 16956,
      "type": "SCALAR"
    },
    {
      "bufferView": 2,
      "byteOffset": 267120,
      "componentType": 5126,
      "count": 3033,
      "max": [
        93.96269989013672,
        194.14939880371094,
        115.91410064697266
      ],
      "min": [
        -93.96269989013672,
        -196.47940063476563,
        7.189300060272217
      ],
      "type": "VEC3"
    },
    {
      "bufferView": 2,
      "byteOffset": 303516,
      "componentType": 5126,
      "count": 3033,
      "max": [
        1.0,
        1.0,
        1.0
      ],
      "min": [
        -1.0,
        -1.0,
        -1.0
      ],
      "type": "VEC3"
    },
    {
      "bufferView": 3,
      "byteOffset": 176960,
      "componentType": 5126,
      "count": 3033,
      "max": [
        1.0,
        1.0,
        0.9999568462371826,
        1.0
      ],
      "min": [
        -1.0,
        -1.0,
        -0.9999332427978516,
        -1.0
      ],
      "type": "VEC4"
    },
    {
      "bufferView": 1,
      "byteOffset": 89040,
      "componentType": 5126,
      "count": 3033,
      "max": [
        0.9855999946594238,
        0.9876999855041504
      ],
      "min": [
        0.01209999993443489,
        0.005499999970197678
      ],
      "type": "VEC2"
    },
    {
      "bufferView": 0,
      "byteOffset": 111000,
      "componentType": 5125,
      "count": 5847,
      "type": "SCALAR"
    },
    {
      "bufferView": 2,
      "byteOffset": 339912,
      "componentType": 5126,
      "count": 10082,
      "max": [
        93.96269989013672,
        194.14939880371094,
        117.86630249023438
      ],
      "min": [
        -93.96269989013672,
        -201.35150146484375,
        0.6484000086784363
      ],
      "type": "VEC3"
    },
    {
      "bufferView": 2,
      "byteOffset": 460896,
      "componentType": 5126,
      "count": 10082,
      "max": [
        1.0,
        1.0,
        1.0
      ],
      "min": [
        -1.0,
        -1.0,
        -0.999846875667572
      ],
      "type": "VEC3"
    },
    {
      "bufferView": 3,
      "byteOffset": 225488,
      "componentType": 5126,
      "count": 10082,
      "max": [
        1.0,
        0.9999985098838806,
        0.9999985694885254,
        1.0
      ],
      "min": [
        -1.0,
        -0.9999985098838806,
        -1.0,
        -1.0
      ],
      "type": "VEC4"
    },
    {
      "bufferView": 1,
      "byteOffset": 113304,
      "componentType": 5126,
      "count": 10082,
      "max": [
        0.994700014591217,
        0.9905999898910522
      ],
      "min": [
        0.0032999999821186066,
        0.004000000189989805
      ],
      "type": "VEC2"
    },
    {
      "bufferView": 0,
      "byteOffset": 134388,
      "componentType": 5125,
      "count": 33324,
      "type": "SCALAR"
    }
  ],
  "asset": {
    "extras": {
      "author": "Willy Decarpentrie (https://sketchfab.com/skudgee)",
      "license": "CC-BY-4.0 (http://creativecommons.org/licenses/by/4.0/)",
      "source": "https://sketchfab.com/3d-models/racing-car-96909aba3ea249adb9044b0449e39379",
      "title": "Racing Car"
    },
    "generator": "Sketchfab-12.68.0",
    "version": "2.0"
  },
  "bufferViews": [
    {
      "buffer": 0,
      "byteLength": 267684,
      "name": "floatBufferViews",
      "target": 34963
    },
    {
      "buffer": 0,
      "byteLength": 193960,
      "byteOffset": 267684,
      "byteStride": 8,
      "name": "floatBufferViews",
      "target": 34962
    },
    {
      "buffer": 0,
      "byteLength": 581880,
      "byteOffset": 461644,
      "byteStride": 12,
      "name": "floatBufferViews",
      "target": 34962
    },
    {
      "buffer": 0,
      "byteLength": 386800,
      "byteOffset": 1043524,
      "byteStride": 16,
      "name": "floatBufferViews",
      "target": 34962
    }
  ],
  "buffers": [
    {
      "byteLength": 1430324,
      "uri": "scene.bin"
    }
  ],
  "extensionsRequired": [
    "KHR_materials_pbrSpecularGlossiness"
  ],
  "extensionsUsed": [
    "KHR_materials_pbrSpecularGlossiness"
  ],
  "images": [
    {
      "uri": "textures/Alpha_diffuse.jpeg"
    },
    {
      "uri": "textures/Alpha_specularGlossiness.png"
    },
    {
      "uri": "textures/Opaque_emissive.jpeg"
    },
    {
      "uri": "textures/Opaque_normal.jpeg"
    }
  ],
  "materials": [
    {
      "alphaMode": "BLEND",
      "doubleSided": true,
      "extensions": {
        "KHR_materials_pbrSpecularGlossiness": {
          "diffuseFactor": [
            0.38,
            0.38,
            0.38,
            0.21
          ],
          "diffuseTexture": {
            "index": 0
          },
          "glossinessFactor": 1.0,
          "specularFactor": [
            1.0,
            1.0,
            1.0
          ],
          "specularGlossinessTexture": {
            "index": 1
          }
        }
      },
      "name": "Alpha"
    },
    {
      "doubleSided": true,
      "emissiveFactor": [
        1.0,
        1.0,
        1.0
      ],
      "emissiveTexture": {
        "index": 2
      },
      "extensions": {
        "KHR_materials_pbrSpecularGlossiness": {
          "diffuseFactor": [
            1.0,
            1.0,
            1.0,
            1.0
          ],
          "diffuseTexture": {
            "index": 0
          },
          "glossinessFactor": 1.0,
          "specularFactor": [
            1.0,
            1.0,
            1.0
          ],
          "specularGlossinessTexture": {
            "index": 1
          }
        }
      },
      "name": "Opaque",
      "normalTexture": {
        "index": 3
      }
    }
  ],
  "meshes": [
    {
      "name": "Object_0",
      "primitives": [
        {
          "attributes": {
            "NORMAL": 1,
            "POSITION": 0,
            "TEXCOORD_0": 2
          },
          "indices": 3,
          "material": 0,
          "mode": 4
        }
      ]
    },
    {
      "name": "Object_1",
      "primitives": [
        {
          "attributes": {
            "NORMAL": 5,
            "POSITION": 4,
            "TANGENT": 6,
            "TEXCOORD_0": 7
          },
          "indices": 8,
          "material": 1,
          "mode": 4
        }
      ]
    },
    {
      "name": "Object_2",
      "primitives": [
        {
          "attributes": {
            "NORMAL": 10,
            "POSITION": 9,
            "TANGENT": 11,
            "TEXCOORD_0": 12
          },
          "indices": 13,
          "material": 1,
          "mode": 4
        }
      ]
    },
    {
      "name": "Object_3",
      "primitives": [
        {
          "attributes": {
            "NORMAL": 15,
            "POSITION": 14,
            "TANGENT": 16,
            "TEXCOORD_0": 17
          },
          "indices": 18,
          "material": 1,
          "mode": 4
        }
      ]
    },
    {
      "name": "Object_4",
      "primitives": [
        {
          "attributes": {
            "NORMAL": 20,
            "POSITION": 19,
            "TANGENT": 21,
            "TEXCOORD_0": 22
          },
          "indices": 23,
          "material": 1,
          "mode": 4
        }
      ]
    }
  ],
  "nodes": [
    {
      "children": [
        1
      ],
      "matrix": [
        1.0,
        0.0,
        0.0,
        0.0,
        0.0,
        2.220446049250313e-16,
        -1.0,
        0.0,
        0.0,
        1.0,
        2.220446049250313e-16,
        0.0,
        0.0,
        0.0,
        0.0,
        1.0
      ],
      "name": "Sketchfab_model"
    },
    {
      "children": [
        2,
        3,
        4,
        5,
        6
      ],
      "name": "RacingCar.obj.cleaner"
    },
    {
      "mesh": 0,
      "name": "Object_2"
    },
    {
      "mesh": 1,
      "name": "Object_3"
    },
    {
      "mesh": 2,
      "name": "Object_4"
    },
    {
      "mesh": 3,
      "name": "Object_5"
    },
    {
      "mesh": 4,
      "name": "Object_6"
    }
  ],
  "samplers": [
    {
      "magFilter": 9729,
      "minFilter": 9987,
      "wrapS": 10497,
      "wrapT": 10497
    }
  ],
  "scene": 0,
  "scenes": [
    {
      "name": "Sketchfab_Scene",
      "nodes": [
        0
      ]
    }
  ],
  "textures": [
    {
      "sampler": 0,
      "source": 0
    },
    {
      "sampler": 0,
      "source": 1
    },
    {
      "sampler": 0,
      "source": 2
    },
    {
      "sampler": 0,
      "source": 3
    }
  ]
}
