{
	"asset":{
		"generator":"Khronos glTF Blender I/O v4.2.69",
		"version":"2.0"
	},
	"scene":0,
	"scenes":[
		{
			"name":"Scene",
			"nodes":[
				0,
				1,
				2,
				3
			]
		}
	],
	"nodes":[
		{
			"mesh":0,
			"name":"Torus.001"
		},
		{
			"mesh":1,
			"name":"Suzanne"
		},
		{
			"mesh":2,
			"name":"Icosphere"
		},
		{
			"mesh":3,
			"name":"Text.002"
		}
	],
	"meshes":[
		{
			"name":"Torus.001",
			"primitives":[
				{
					"attributes":{
						"POSITION":0,
						"NORMAL":1
					},
					"indices":2
				}
			]
		},
		{
			"name":"Suzanne",
			"primitives":[
				{
					"attributes":{
						"POSITION":3,
						"NORMAL":4
					},
					"indices":5
				}
			]
		},
		{
			"name":"Icosphere",
			"primitives":[
				{
					"attributes":{
						"POSITION":6,
						"NORMAL":7
					},
					"indices":8
				}
			]
		},
		{
			"name":"Text.002",
			"primitives":[
				{
					"attributes":{
						"POSITION":9,
						"NORMAL":10
					},
					"indices":11
				}
			]
		}
	],
	"accessors":[
		{
			"bufferView":0,
			"componentType":5126,
			"count":59406,
			"max":[
				3.9416017532348633,
				3.320873737335205,
				3.644357204437256
			],
			"min":[
				-3.9416017532348633,
				-3.32088041305542,
				-3.6445865631103516
			],
			"type":"VEC3"
		},
		{
			"bufferView":1,
			"componentType":5126,
			"count":59406,
			"type":"VEC3"
		},
		{
			"bufferView":2,
			"componentType":5123,
			"count":59856,
			"type":"SCALAR"
		},
		{
			"bufferView":3,
			"componentType":5126,
			"count":47230,
			"max":[
				4.160419464111328,
				3.014688491821289,
				2.7867653369903564
			],
			"min":[
				-3.014234781265259,
				-2.0486912727355957,
				-2.9317619800567627
			],
			"type":"VEC3"
		},
		{
			"bufferView":4,
			"componentType":5126,
			"count":47230,
			"type":"VEC3"
		},
		{
			"bufferView":5,
			"componentType":5123,
			"count":47232,
			"type":"SCALAR"
		},
		{
			"bufferView":6,
			"componentType":5126,
			"count":61440,
			"max":[
				3.000000238418579,
				3,
				3.000000238418579
			],
			"min":[
				-2.999999761581421,
				-3,
				-2.999999761581421
			],
			"type":"VEC3"
		},
		{
			"bufferView":7,
			"componentType":5126,
			"count":61440,
			"type":"VEC3"
		},
		{
			"bufferView":8,
			"componentType":5123,
			"count":61440,
			"type":"SCALAR"
		},
		{
			"bufferView":9,
			"componentType":5126,
			"count":29252,
			"max":[
				7.138815402984619,
				1.2706655263900757,
				0.33230283856391907
			],
			"min":[
				-7.135681629180908,
				-0.9250088930130005,
				-0.33249858021736145
			],
			"type":"VEC3"
		},
		{
			"bufferView":10,
			"componentType":5126,
			"count":29252,
			"type":"VEC3"
		},
		{
			"bufferView":11,
			"componentType":5123,
			"count":57048,
			"type":"SCALAR"
		}
	],
	"bufferViews":[
		{
			"buffer":0,
			"byteLength":712872,
			"byteOffset":0,
			"target":34962
		},
		{
			"buffer":0,
			"byteLength":712872,
			"byteOffset":712872,
			"target":34962
		},
		{
			"buffer":0,
			"byteLength":119712,
			"byteOffset":1425744,
			"target":34963
		},
		{
			"buffer":0,
			"byteLength":566760,
			"byteOffset":1545456,
			"target":34962
		},
		{
			"buffer":0,
			"byteLength":566760,
			"byteOffset":2112216,
			"target":34962
		},
		{
			"buffer":0,
			"byteLength":94464,
			"byteOffset":2678976,
			"target":34963
		},
		{
			"buffer":0,
			"byteLength":737280,
			"byteOffset":2773440,
			"target":34962
		},
		{
			"buffer":0,
			"byteLength":737280,
			"byteOffset":3510720,
			"target":34962
		},
		{
			"buffer":0,
			"byteLength":122880,
			"byteOffset":4248000,
			"target":34963
		},
		{
			"buffer":0,
			"byteLength":351024,
			"byteOffset":4370880,
			"target":34962
		},
		{
			"buffer":0,
			"byteLength":351024,
			"byteOffset":4721904,
			"target":34962
		},
		{
			"buffer":0,
			"byteLength":114096,
			"byteOffset":5072928,
			"target":34963
		}
	],
	"buffers":[
		{
			"byteLength":5187024,
			"uri":"%E6%97%A0%E6%A0%87%E9%A2%98.bin"
		}
	]
}
