{
  "asset": {
    "version": "2.0",
    "generator": "THREE.GLTFExporter"
  },
  "scenes": [
    {
      "name": "Scene",
      "nodes": [
        4
      ]
    }
  ],
  "scene": 0,
  "nodes": [
    {
      "name": "Icosphere",
      "extras": {
        "name": "Icosphere"
      },
      "mesh": 0
    },
    {
      "name": "Suzanne",
      "extras": {
        "name": "Suzanne"
      },
      "mesh": 1
    },
    {
      "name": "Torus001",
      "extras": {
        "name": "Torus.001"
      },
      "mesh": 2
    },
    {
      "name": "Text002",
      "extras": {
        "name": "Text.002"
      },
      "mesh": 3
    },
    {
      "name": "models.glb",
      "children": [
        0,
        1,
        2,
        3
      ]
    }
  ],
  "bufferViews": [
    {
      "buffer": 0,
      "byteOffset": 0,
      "byteLength": 122904,
      "target": 34962,
      "byteStride": 12
    },
    {
      "buffer": 0,
      "byteOffset": 122904,
      "byteLength": 245760,
      "target": 34963
    },
    {
      "buffer": 0,
      "byteOffset": 368664,
      "byteLength": 95496,
      "target": 34962,
      "byteStride": 12
    },
    {
      "buffer": 0,
      "byteOffset": 464160,
      "byteLength": 188928,
      "target": 34963
    },
    {
      "buffer": 0,
      "byteOffset": 653088,
      "byteLength": 119712,
      "target": 34962,
      "byteStride": 12
    },
    {
      "buffer": 0,
      "byteOffset": 772800,
      "byteLength": 239424,
      "target": 34963
    },
    {
      "buffer": 0,
      "byteOffset": 1012224,
      "byteLength": 114264,
      "target": 34962,
      "byteStride": 12
    },
    {
      "buffer": 0,
      "byteOffset": 1126488,
      "byteLength": 228192,
      "target": 34963
    }
  ],
  "buffers": [
    {
      "byteLength": 1354680,
      "uri": "data:application/octet-stream;base64,"
    }
  ],
  "accessors": [
    {
      "bufferView": 0,
      "componentType": 5126,
      "count": 10242,
      "max": [
        3.000000238418579,
        3,
        3.000000238418579
      ],
      "min": [
        -2.999999761581421,
        -3,
        -2.999999761581421
      ],
      "type": "VEC3"
    },
    {
      "bufferView": 1,
      "componentType": 5125,
      "count": 61440,
      "max": [
        10241
      ],
      "min": [
        0
      ],
      "type": "SCALAR"
    },
    {
      "bufferView": 2,
      "componentType": 5126,
      "count": 7958,
      "max": [
        4.160419464111328,
        3.014688491821289,
        2.7867653369903564
      ],
      "min": [
        -3.014234781265259,
        -2.0486912727355957,
        -2.9317619800567627
      ],
      "type": "VEC3"
    },
    {
      "bufferView": 3,
      "componentType": 5125,
      "count": 47232,
      "max": [
        7957
      ],
      "min": [
        0
      ],
      "type": "SCALAR"
    },
    {
      "bufferView": 4,
      "componentType": 5126,
      "count": 9976,
      "max": [
        3.9416017532348633,
        3.320873737335205,
        3.644357204437256
      ],
      "min": [
        -3.9416017532348633,
        -3.32088041305542,
        -3.6445865631103516
      ],
      "type": "VEC3"
    },
    {
      "bufferView": 5,
      "componentType": 5125,
      "count": 59856,
      "max": [
        9975
      ],
      "min": [
        0
      ],
      "type": "SCALAR"
    },
    {
      "bufferView": 6,
      "componentType": 5126,
      "count": 9522,
      "max": [
        7.138815402984619,
        1.2706655263900757,
        0.33230283856391907
      ],
      "min": [
        -7.135681629180908,
        -0.9250088930130005,
        -0.33249858021736145
      ],
      "type": "VEC3"
    },
    {
      "bufferView": 7,
      "componentType": 5125,
      "count": 57048,
      "max": [
        9521
      ],
      "min": [
        0
      ],
      "type": "SCALAR"
    }
  ],
  "materials": [
    {
      "pbrMetallicRoughness": {
        "metallicFactor": 1,
        "roughnessFactor": 1
      }
    }
  ],
  "meshes": [
    {
      "primitives": [
        {
          "mode": 4,
          "attributes": {
            "POSITION": 0
          },
          "indices": 1,
          "material": 0
        }
      ]
    },
    {
      "primitives": [
        {
          "mode": 4,
          "attributes": {
            "POSITION": 2
          },
          "indices": 3,
          "material": 0
        }
      ]
    },
    {
      "primitives": [
        {
          "mode": 4,
          "attributes": {
            "POSITION": 4
          },
          "indices": 5,
          "material": 0
        }
      ]
    },
    {
      "primitives": [
        {
          "mode": 4,
          "attributes": {
            "POSITION": 6
          },
          "indices": 7,
          "material": 0
        }
      ]
    }
  ]
}