{
  "accessors": [
    {
      "bufferView": 2,
      "componentType": 5126,
      "count": 7299,
      "max": [
        106.04167175292969,
        60.689910888671875,
        66.06888580322266
      ],
      "min": [
        -66.06888580322266,
        -60.69269561767578,
        -66.06888580322266
      ],
      "type": "VEC3"
    },
    {
      "bufferView": 2,
      "byteOffset": 87588,
      "componentType": 5126,
      "count": 7299,
      "max": [
        0.9999879002571106,
        1.0,
        0.9999879002571106
      ],
      "min": [
        -0.9999879002571106,
        -1.0,
        -0.9999879002571106
      ],
      "type": "VEC3"
    },
    {
      "bufferView": 3,
      "componentType": 5126,
      "count": 7299,
      "max": [
        1.0,
        0.9999874830245972,
        1.0,
        1.0
      ],
      "min": [
        -1.0,
        -0.9999818205833435,
        -0.9999998807907104,
        1.0
      ],
      "type": "VEC4"
    },
    {
      "bufferView": 1,
      "componentType": 5126,
      "count": 7299,
      "max": [
        0.9930945634841919,
        0.9978865385055542
      ],
      "min": [
        0.001667918637394905,
        0.044654011726379395
      ],
      "type": "VEC2"
    },
    {
      "bufferView": 0,
      "componentType": 5125,
      "count": 40896,
      "type": "SCALAR"
    },
    {
      "bufferView": 2,
      "byteOffset": 175176,
      "componentType": 5126,
      "count": 707,
      "max": [
        63.77848434448242,
        32.146785736083984,
        63.77848434448242
      ],
      "min": [
        -63.77848434448242,
        -32.146785736083984,
        -63.77848434448242
      ],
      "type": "VEC3"
    },
    {
      "bufferView": 2,
      "byteOffset": 183660,
      "componentType": 5126,
      "count": 707,
      "max": [
        0.9996950626373291,
        1.0,
        0.9996950626373291
      ],
      "min": [
        -0.9996950626373291,
        -1.0,
        -0.9996950626373291
      ],
      "type": "VEC3"
    },
    {
      "bufferView": 1,
      "byteOffset": 58392,
      "componentType": 5126,
      "count": 707,
      "max": [
        1.0,
        1.0
      ],
      "min": [
        0.0,
        0.0
      ],
      "type": "VEC2"
    },
    {
      "bufferView": 0,
      "byteOffset": 163584,
      "componentType": 5125,
      "count": 3000,
      "type": "SCALAR"
    }
  ],
  "asset": {
    "extras": {
      "author": "Kiklox (https://sketchfab.com/kiklox)",
      "license": "CC-BY-4.0 (http://creativecommons.org/licenses/by/4.0/)",
      "source": "https://sketchfab.com/3d-models/plaions-mug-cae873eaaf89415c8dfa38626b04c316",
      "title": "PLAION's mug"
    },
    "generator": "Sketchfab-14.64.0",
    "version": "2.0"
  },
  "bufferViews": [
    {
      "buffer": 0,
      "byteLength": 175584,
      "name": "floatBufferViews",
      "target": 34963
    },
    {
      "buffer": 0,
      "byteLength": 64048,
      "byteOffset": 175584,
      "byteStride": 8,
      "name": "floatBufferViews",
      "target": 34962
    },
    {
      "buffer": 0,
      "byteLength": 192144,
      "byteOffset": 239632,
      "byteStride": 12,
      "name": "floatBufferViews",
      "target": 34962
    },
    {
      "buffer": 0,
      "byteLength": 116784,
      "byteOffset": 431776,
      "byteStride": 16,
      "name": "floatBufferViews",
      "target": 34962
    }
  ],
  "buffers": [
    {
      "byteLength": 548560,
      "uri": "scene.bin"
    }
  ],
  "extensionsUsed": [
    "KHR_materials_clearcoat",
    "KHR_materials_specular"
  ],
  "images": [
    {
      "uri": "textures/PlaionMug_baseColor.png"
    },
    {
      "uri": "textures/PlaionMug_metallicRoughness.png"
    },
    {
      "uri": "textures/PlaionMug_normal.png"
    }
  ],
  "materials": [
    {
      "extensions": {
        "KHR_materials_clearcoat": {
          "clearcoatFactor": 0.4190488961490168,
          "clearcoatRoughnessFactor": 0.04
        },
        "KHR_materials_specular": {
          "specularColorFactor": [
            1.0,
            1.0,
            1.0
          ],
          "specularFactor": 0.6140971096292864
        }
      },
      "name": "PlaionMug",
      "normalTexture": {
        "index": 2
      },
      "pbrMetallicRoughness": {
        "baseColorTexture": {
          "index": 0
        },
        "metallicRoughnessTexture": {
          "index": 1
        }
      }
    },
    {
      "alphaMode": "BLEND",
      "doubleSided": true,
      "extensions": {
        "KHR_materials_specular": {
          "specularColorFactor": [
            1.0,
            1.0,
            1.0
          ],
          "specularFactor": 0.38247735612146627
        }
      },
      "name": "Coffee",
      "pbrMetallicRoughness": {
        "baseColorFactor": [
          0.025191469456802472,
          0.008411952236681185,
          0.0030731839664900522,
          0.937145713205983
        ],
        "metallicFactor": 0.0,
        "roughnessFactor": 0.28495324938133143
      }
    }
  ],
  "meshes": [
    {
      "name": "Mug_PlaionMug_0",
      "primitives": [
        {
          "attributes": {
            "NORMAL": 1,
            "POSITION": 0,
            "TANGENT": 2,
            "TEXCOORD_0": 3
          },
          "indices": 4,
          "material": 0,
          "mode": 4
        }
      ]
    },
    {
      "name": "Coffee_Coffee_0",
      "primitives": [
        {
          "attributes": {
            "NORMAL": 6,
            "POSITION": 5,
            "TEXCOORD_0": 7
          },
          "indices": 8,
          "material": 1,
          "mode": 4
        }
      ]
    }
  ],
  "nodes": [
    {
      "children": [
        1
      ],
      "matrix": [
        1.0,
        0.0,
        0.0,
        0.0,
        0.0,
        2.220446049250313e-16,
        -1.0,
        0.0,
        0.0,
        1.0,
        2.220446049250313e-16,
        0.0,
        0.0,
        0.0,
        0.0,
        1.0
      ],
      "name": "Sketchfab_model"
    },
    {
      "children": [
        2
      ],
      "matrix": [
        0.009999999776482582,
        0.0,
        0.0,
        0.0,
        0.0,
        0.0,
        0.009999999776482582,
        0.0,
        0.0,
        -0.009999999776482582,
        0.0,
        0.0,
        0.0,
        0.0,
        0.0,
        1.0
      ],
      "name": "Mug.c4d.fbx"
    },
    {
      "children": [
        3,
        5
      ],
      "name": "RootNode"
    },
    {
      "children": [
        4
      ],
      "name": "Mug"
    },
    {
      "mesh": 0,
      "name": "Mug_PlaionMug_0"
    },
    {
      "children": [
        6
      ],
      "matrix": [
        1.0,
        0.0,
        0.0,
        0.0,
        0.0,
        1.0,
        0.0,
        0.0,
        0.0,
        0.0,
        1.0,
        0.0,
        -2.1082355976104736,
        0.0,
        0.0,
        1.0
      ],
      "name": "Coffee"
    },
    {
      "mesh": 1,
      "name": "Coffee_Coffee_0"
    }
  ],
  "samplers": [
    {
      "magFilter": 9729,
      "minFilter": 9987,
      "wrapS": 10497,
      "wrapT": 10497
    }
  ],
  "scene": 0,
  "scenes": [
    {
      "name": "Sketchfab_Scene",
      "nodes": [
        0
      ]
    }
  ],
  "textures": [
    {
      "sampler": 0,
      "source": 0
    },
    {
      "sampler": 0,
      "source": 1
    },
    {
      "sampler": 0,
      "source": 2
    }
  ]
}
